<svg xmlns="http://www.w3.org/2000/svg" width="50.445" height="39.649" viewBox="0 0 50.445 39.649">
  <g id="calendar-icon" transform="translate(0)">
    <path id="Pfad_1" data-name="Pfad 1" d="M49.941,13.6H47.148a4.5,4.5,0,0,0-8.828,0h-18.2a4.5,4.5,0,0,0-8.828,0H8.5C5.982,13.6,4,15.313,4,17.385V45.76c0,2.162,1.982,3.873,4.5,3.873H49.941c2.522,0,4.5-1.712,4.5-3.783V17.385C54.444,15.313,52.463,13.6,49.941,13.6Zm-7.206-1.8a2.7,2.7,0,1,1-2.7,2.7A2.654,2.654,0,0,1,42.734,11.8Zm-27.024,0a2.7,2.7,0,1,1-2.7,2.7A2.654,2.654,0,0,1,15.71,11.8ZM8.5,15.4H11.3a4.5,4.5,0,0,0,8.828,0h18.2a4.5,4.5,0,0,0,8.828,0h2.792c1.441,0,2.7.9,2.7,1.982V22.61H5.8V17.385C5.8,16.3,7.063,15.4,8.5,15.4ZM49.941,47.832H8.5c-1.441,0-2.7-.9-2.7-1.982V24.411H52.643V45.85C52.643,46.931,51.382,47.832,49.941,47.832Z" transform="translate(-4 -9.984)" fill="#fff"/>
    <path id="Pfad_2" data-name="Pfad 2" d="M30.909,28a9.909,9.909,0,1,0,9.909,9.909A9.88,9.88,0,0,0,30.909,28Zm0,18.016a8.107,8.107,0,1,1,8.107-8.107A8.073,8.073,0,0,1,30.909,46.016Z" transform="translate(-5.686 -11.772)" fill="#fff"/>
    <path id="Pfad_3" data-name="Pfad 3" d="M34.306,37.7H32.5V35.9a.9.9,0,1,0-1.8,0v1.8H28.9a.9.9,0,0,0,0,1.8h1.8v1.8a.9.9,0,1,0,1.8,0V39.5h1.8a.9.9,0,1,0,0-1.8Z" transform="translate(-6.381 -12.466)" fill="#fff"/>
  </g>
</svg>
