<svg id="Ebene_1" data-name="Ebene 1" xmlns="http://www.w3.org/2000/svg" viewBox="0 0 70 70"><defs><style>.cls-1,.cls-3,.cls-5{fill:#fff;}.cls-1,.cls-2{stroke:#fff;}.cls-1,.cls-2,.cls-3,.cls-4,.cls-5{stroke-miterlimit:10;stroke-width:2px;}.cls-2,.cls-4{fill:none;}.cls-3,.cls-4,.cls-5{stroke:#3bc4e1;}.cls-5{stroke-linecap:round;}</style></defs><title>0</title><path class="cls-1" d="M55.42,19.8H50.58a4.76,4.76,0,0,1,.06.64,4.64,4.64,0,1,1-9.28,0,4.76,4.76,0,0,1,.06-.64H28.58a4.76,4.76,0,0,1,.06.64,4.64,4.64,0,1,1-9.28,0,4.76,4.76,0,0,1,.06-.64H14.58a6.37,6.37,0,0,0-6.37,6.37V51.44a6.37,6.37,0,0,0,6.37,6.36H55.42a6.37,6.37,0,0,0,6.37-6.36V26.17A6.37,6.37,0,0,0,55.42,19.8Z"/><path class="cls-2" d="M28.58,19.8a4.62,4.62,0,0,0-9.16,0"/><path class="cls-2" d="M50.58,19.8a4.62,4.62,0,0,0-9.16,0"/><line class="cls-3" x1="7.21" y1="30.43" x2="62.79" y2="30.43"/><circle class="cls-4" cx="35" cy="43.64" r="9.28"/><line class="cls-5" x1="35" y1="39.64" x2="35" y2="47.64"/><line class="cls-5" x1="31" y1="43.64" x2="39" y2="43.64"/></svg>