<svg id="Ebene_1" data-name="Ebene 1" xmlns="http://www.w3.org/2000/svg" viewBox="0 0 70 70"><defs><style>.cls-1{fill:#3bc4e1;}.cls-2{fill:none;}.cls-2,.cls-3,.cls-4{stroke:#fff;stroke-miterlimit:10;stroke-width:2px;}.cls-3,.cls-4{fill:#fff;}.cls-4{stroke-linecap:round;}</style></defs><title>1</title><rect class="cls-1" x="5.05" y="5.05" width="59.9" height="59.9"/><path class="cls-2" d="M55.42,19.8H50.58a4.76,4.76,0,0,1,.06.64,4.64,4.64,0,1,1-9.28,0,4.76,4.76,0,0,1,.06-.64H28.58a4.76,4.76,0,0,1,.06.64,4.64,4.64,0,1,1-9.28,0,4.76,4.76,0,0,1,.06-.64H14.58a6.37,6.37,0,0,0-6.37,6.37V51.44a6.37,6.37,0,0,0,6.37,6.36H55.42a6.37,6.37,0,0,0,6.37-6.36V26.17A6.37,6.37,0,0,0,55.42,19.8Z"/><path class="cls-2" d="M28.58,19.8a4.62,4.62,0,0,0-9.16,0"/><path class="cls-2" d="M50.58,19.8a4.62,4.62,0,0,0-9.16,0"/><line class="cls-3" x1="8.21" y1="30.43" x2="61.79" y2="30.43"/><circle class="cls-2" cx="35" cy="43.64" r="9.28"/><line class="cls-4" x1="35" y1="39.64" x2="35" y2="47.64"/><line class="cls-4" x1="31" y1="43.64" x2="39" y2="43.64"/></svg>