<svg xmlns="http://www.w3.org/2000/svg" width="51.779" height="51.778" viewBox="0 0 51.779 51.778">
  <g id="home-icon" transform="translate(0)">
    <g id="Gruppe_2" data-name="Gruppe 2" transform="translate(0)">
      <g id="Gruppe_1" data-name="Gruppe 1">
        <path id="Pfad_4" data-name="Pfad 4" d="M51.464,24.047l-6.157-6.157V1.079A1.079,1.079,0,0,0,44.228,0H35.6a1.079,1.079,0,0,0-1.079,1.079V7.1L28.492,1.079a3.772,3.772,0,0,0-5.206,0L.316,24.047a1.08,1.08,0,0,0,.764,1.842H6.473V50.7a1.079,1.079,0,0,0,1.079,1.079H44.228A1.076,1.076,0,0,0,45.3,50.7V25.889H50.7a1.081,1.081,0,0,0,.766-1.842Zm-7.236-.315a1.079,1.079,0,0,0-1.079,1.079v24.81H8.635V24.81a1.079,1.079,0,0,0-1.079-1.079H3.685L24.813,2.6a1.573,1.573,0,0,1,2.155,0l7.868,7.868a1.08,1.08,0,0,0,1.842-.764V2.157h6.472V18.338a1.077,1.077,0,0,0,.315.764l4.632,4.63Zm-15.052,0a5.1,5.1,0,0,0-3.284,1.21,5.088,5.088,0,0,0-3.284-1.21,5.568,5.568,0,0,0-5.348,5.754,6.276,6.276,0,0,0,1.493,3.989c1.515,1.851,6.142,6.949,6.339,7.165a1.08,1.08,0,0,0,1.6,0c.2-.216,4.824-5.316,6.339-7.165a6.27,6.27,0,0,0,1.493-3.987A5.566,5.566,0,0,0,29.175,23.732Zm2.181,8.377c-1.1,1.353-4.039,4.619-5.465,6.2-1.424-1.579-4.358-4.848-5.465-6.2a4.187,4.187,0,0,1-1.01-2.623,3.417,3.417,0,0,1,3.191-3.6,3.048,3.048,0,0,1,2.423,1.262,1.119,1.119,0,0,0,1.719,0,3.062,3.062,0,0,1,2.425-1.262,3.413,3.413,0,0,1,3.187,3.6A4.186,4.186,0,0,1,31.357,32.109Z" transform="translate(0)" fill="#fff"/>
      </g>
    </g>
  </g>
</svg>
