<svg id="Ebene_1" data-name="Ebene 1" xmlns="http://www.w3.org/2000/svg" viewBox="0 0 70 70"><defs><style>.cls-1{fill:#3bc4e1;}.cls-2{fill:none;stroke:#fff;stroke-linecap:round;stroke-linejoin:round;stroke-width:2px;}</style></defs><title>home-icon</title><rect class="cls-1" x="5.05" y="5.05" width="59.9" height="59.9"/><polygon class="cls-2" points="35 13.58 27.77 20.63 27.77 16.1 22.32 16.1 22.32 25.95 13.1 34.94 19.67 34.94 19.67 57.8 50.33 57.8 50.33 34.94 56.9 34.94 35 13.58"/><path class="cls-2" d="M41.89,40.21a6.21,6.21,0,0,0,1.81-3.85A5,5,0,0,0,35,33a5,5,0,0,0-8.7,3.37c0,1.54.94,2.72,1.81,3.85h0L35,48Z"/></svg>