<?xml version="1.0" encoding="utf-8"?>
<!-- Generator: Adobe Illustrator 22.0.1, SVG Export Plug-In . SVG Version: 6.00 Build 0)  -->
<svg version="1.1" id="Layer_1" xmlns="http://www.w3.org/2000/svg" xmlns:xlink="http://www.w3.org/1999/xlink" x="0px" y="0px"
	 viewBox="0 0 556.8 135.4" style="enable-background:new 0 0 556.8 135.4;" xml:space="preserve">
<style type="text/css">
	.st0{fill:#A5D867;}
	.st1{fill:#0094B3;}
	.st2{fill:#0066A1;}
</style>
<rect x="364.2" y="22.2" class="st0" width="25.4" height="22.2"/>
<rect x="386.3" class="st0" width="22.2" height="26.5"/>
<rect x="386.3" y="22.2" class="st1" width="22.2" height="26.6"/>
<path class="st2" d="M228.6,22.2h-9.4L207.5,34c-8.5-9-20.1-14.1-33.5-14.1c-31.2,0-57.4,25.6-57.4,58.1c0,32.5,26.2,57.4,57.4,57.4
	c13.4,0,24.7-5.5,33.5-14l0,6.7h0v5.1h21.1v-5.1h0l0-100.7V22.2z M174.1,115.4c-19.5,0-35.4-17.1-35.4-37.4
	c0-20.3,15.9-37.5,35.4-37.5c19.5,0,35.4,17.1,35.4,37.5C209.4,98.4,193.6,115.4,174.1,115.4z"/>
<path class="st2" d="M556.8,22.2h-9.4L535.7,34c-8.5-9-20.1-14.1-33.5-14.1c-31.2,0-57.4,25.6-57.4,58.1c0,32.5,26.2,57.4,57.4,57.4
	c13.4,0,24.7-5.5,33.5-14l0,6.7h0v5.1h21.1v-5.1h0l0-100.7V22.2z M502.2,115.4c-19.5,0-35.4-17.1-35.4-37.4
	c0-20.3,15.9-37.5,35.4-37.5c19.5,0,35.4,17.1,35.4,37.5C537.6,98.4,521.7,115.4,502.2,115.4z"/>
<path class="st2" d="M307,19.9c-24.1,0-34.8,12.7-34.8,12.7l-10.4-10.4h-10.4v99.6v11.6h22.2v-11.6V65.6c0-13.4,12.5-25.9,29.3-25.9
	c18.1,0,29.3,13.8,29.3,26.5v55.5v11.6h22.2v-11.6V67.5C354.4,40,334,19.9,307,19.9z"/>
<path class="st2" d="M418.9,111.2L418.9,111.2c-5.6,0-10.1-4.4-10.4-10c0,0,0,0,0,0V44.3h-22.2v56.9c0,0.2,0,0.4,0.1,0.6
	c0.5,17.4,14.9,31.4,32.4,31.4h11.8v-22H418.9z"/>
<rect x="408.5" y="22.2" class="st2" width="22.2" height="22.2"/>
<polygon class="st2" points="106.3,7.6 106.3,0.3 83,0.3 22.2,66.6 22.2,0.2 0,0.2 0,133.1 22.2,133.1 22.2,99.1 42.8,76.9 
	94.4,133.1 117.6,133.1 117.7,125.6 57.8,60.4 "/>
</svg>
