<svg id="Ebene_1" data-name="Ebene 1" xmlns="http://www.w3.org/2000/svg" viewBox="0 0 311 42.93"><defs><style>.cls-1{fill:#3bc4e1;}</style></defs><title>rokotin_logo_blue</title><path class="cls-1" d="M86.22,36.24a15.33,15.33,0,0,1-.64,4.63,12.87,12.87,0,0,1-1.73,3.59,12.07,12.07,0,0,1-2.52,2.66,15.47,15.47,0,0,1-3,1.82,14.06,14.06,0,0,1-3.14,1,15.38,15.38,0,0,1-3,.32L88,63.94H76.34L60.54,50.3H55.1V42.73H72.22a8.91,8.91,0,0,0,2.61-.6,6.3,6.3,0,0,0,2-1.3,5.56,5.56,0,0,0,1.32-2,7,7,0,0,0,.47-2.63V31.47a2.32,2.32,0,0,0-.16-1,1.22,1.22,0,0,0-.41-.5,1.18,1.18,0,0,0-.52-.19l-.51,0h-25V64H44.5V26a3.87,3.87,0,0,1,.29-1.48,3.75,3.75,0,0,1,.8-1.22,3.48,3.48,0,0,1,1.21-.81,4,4,0,0,1,1.51-.29H77a9.12,9.12,0,0,1,4.28.92,8.79,8.79,0,0,1,2.84,2.3,8.91,8.91,0,0,1,1.57,3,10.5,10.5,0,0,1,.48,3v4.82Z" transform="translate(-44.5 -21.6)"/><path class="cls-1" d="M157.12,64h-7.57V22.21h7.57Zm36.13,0H182.5l-17-17.06h-5.33V39.26h5.33l17-17.06h10.74L171.78,43.07Z" transform="translate(-44.5 -21.6)"/><path class="cls-1" d="M287.74,29.78H271.06V64h-7.57V29.78H246.78V22.21h41Z" transform="translate(-44.5 -21.6)"/><path class="cls-1" d="M304.4,64h-7.57V22.21h7.57Z" transform="translate(-44.5 -21.6)"/><path class="cls-1" d="M355.5,60.72a3.61,3.61,0,0,1-.31,1.51,3.81,3.81,0,0,1-.82,1.21,3.6,3.6,0,0,1-1.21.8,3.9,3.9,0,0,1-1.48.29,4.13,4.13,0,0,1-1.41-.26,3.32,3.32,0,0,1-1.27-.84L321.34,34.55V64h-7.57V25.44a3.66,3.66,0,0,1,.65-2.11,4.06,4.06,0,0,1,1.67-1.41,3.9,3.9,0,0,1,2.21-.22,3.62,3.62,0,0,1,1.95,1.06l27.66,28.85V22.21h7.57V60.72Z" transform="translate(-44.5 -21.6)"/><path class="cls-1" d="M140.46,47a18.47,18.47,0,0,1-1.31,7A16.31,16.31,0,0,1,130,63.21a18.36,18.36,0,0,1-6.94,1.3H112.8a18.3,18.3,0,0,1-7-1.3,16.34,16.34,0,0,1-5.53-3.62,16.82,16.82,0,0,1-3.65-5.53,18.21,18.21,0,0,1-1.32-7v-8a18.25,18.25,0,0,1,1.32-7,16.34,16.34,0,0,1,9.18-9.15,18.23,18.23,0,0,1,7-1.31h10.25A18.13,18.13,0,0,1,130,22.91a16.8,16.8,0,0,1,5.52,3.62,16.44,16.44,0,0,1,3.64,5.53,18.44,18.44,0,0,1,1.31,7Zm-7.57-8a11.16,11.16,0,0,0-.71-4.06,9.21,9.21,0,0,0-2-3.12,9.07,9.07,0,0,0-3.11-2,10.78,10.78,0,0,0-4-.71H112.8a11,11,0,0,0-4,.71,9.25,9.25,0,0,0-3.13,2,8.76,8.76,0,0,0-2,3.12,11,11,0,0,0-.71,4.06v8a11.16,11.16,0,0,0,.71,4.06,9,9,0,0,0,2,3.11,9.25,9.25,0,0,0,3.13,2,10.87,10.87,0,0,0,4,.71H123a11.07,11.07,0,0,0,4-.71,9,9,0,0,0,3.13-2,8.81,8.81,0,0,0,2-3.11,11,11,0,0,0,.71-4.06v-8Z" transform="translate(-44.5 -21.6)"/><polygon class="cls-1" points="83.21 17.38 77.47 17.38 77.47 11.64 69.33 11.64 69.33 17.38 63.58 17.38 63.58 25.53 69.33 25.53 69.33 31.27 77.47 31.27 77.47 25.53 83.21 25.53 83.21 17.38"/><path class="cls-1" d="M241.78,47a18.47,18.47,0,0,1-1.31,7,16.31,16.31,0,0,1-9.16,9.15,18.36,18.36,0,0,1-6.94,1.3H214.12a18.3,18.3,0,0,1-7-1.3,16.34,16.34,0,0,1-5.53-3.62A16.82,16.82,0,0,1,198,54.06a18.21,18.21,0,0,1-1.32-7v-8a18.25,18.25,0,0,1,1.32-7,16.34,16.34,0,0,1,9.18-9.15,18.23,18.23,0,0,1,7-1.31h10.25a18.13,18.13,0,0,1,6.94,1.31,16.8,16.8,0,0,1,5.52,3.62,16.44,16.44,0,0,1,3.64,5.53,18.44,18.44,0,0,1,1.31,7Zm-7.57-8A11.16,11.16,0,0,0,233.5,35a9.21,9.21,0,0,0-2-3.12,9,9,0,0,0-3.12-2,10.78,10.78,0,0,0-4-.71H214.12a11,11,0,0,0-4,.71,9.25,9.25,0,0,0-3.13,2,8.76,8.76,0,0,0-2,3.12,11,11,0,0,0-.71,4.06v8a11.16,11.16,0,0,0,.71,4.06,9,9,0,0,0,2,3.11,9.25,9.25,0,0,0,3.13,2,10.87,10.87,0,0,0,4,.71h10.19a11,11,0,0,0,4-.71,9,9,0,0,0,3.13-2,8.81,8.81,0,0,0,2-3.11,11,11,0,0,0,.71-4.06v-8Z" transform="translate(-44.5 -21.6)"/><polygon class="cls-1" points="184.53 17.38 178.79 17.38 178.79 11.64 170.64 11.64 170.64 17.38 164.9 17.38 164.9 25.53 170.64 25.53 170.64 31.27 178.79 31.27 178.79 25.53 184.53 25.53 184.53 17.38"/></svg>