<svg xmlns="http://www.w3.org/2000/svg" width="329.163" height="47.083" viewBox="0 0 329.163 47.083">
  <g id="rokotin_logo" transform="translate(-47.18 -29.64)">
    <path id="Pfad_24" data-name="Pfad 24" d="M92.949,45.63a17.16,17.16,0,0,1-.7,5.083,14.392,14.392,0,0,1-1.9,3.942,13.245,13.245,0,0,1-2.768,2.918,16.439,16.439,0,0,1-3.274,1.992A15.729,15.729,0,0,1,80.866,60.7a16.417,16.417,0,0,1-3.274.355l17.339,14.98H82.094L64.777,61.062H58.8v-8.3H77.582a9.47,9.47,0,0,0,2.854-.657,7.362,7.362,0,0,0,2.24-1.422,6.141,6.141,0,0,0,1.454-2.154,7.581,7.581,0,0,0,.506-2.886V40.407a2.487,2.487,0,0,0-.172-1.066,1.2,1.2,0,0,0-.452-.538,1.309,1.309,0,0,0-.571-.2,5.333,5.333,0,0,0-.56-.032h-27.4v37.5h-8.3V34.419a4.135,4.135,0,0,1,.323-1.626,4.356,4.356,0,0,1,.883-1.346,4,4,0,0,1,1.325-.894,4.217,4.217,0,0,1,1.658-.323H82.891a10.055,10.055,0,0,1,4.7,1,9.432,9.432,0,0,1,3.112,2.52,9.682,9.682,0,0,1,1.723,3.274,11.757,11.757,0,0,1,.528,3.285Z" transform="translate(0 0.045)" fill="#fff"/>
    <path id="Pfad_25" data-name="Pfad 25" d="M145.6,57.554a20.166,20.166,0,0,1-1.432,7.7,18.342,18.342,0,0,1-4,6.074,18.14,18.14,0,0,1-6.052,3.974,20.043,20.043,0,0,1-7.614,1.422H115.259a20.194,20.194,0,0,1-7.635-1.422,18.124,18.124,0,0,1-6.074-3.974,18.426,18.426,0,0,1-4.006-6.074,19.932,19.932,0,0,1-1.454-7.7V48.8a19.939,19.939,0,0,1,1.454-7.678,17.92,17.92,0,0,1,10.08-10.048,19.953,19.953,0,0,1,7.635-1.432H126.5a20.008,20.008,0,0,1,7.614,1.432,18.363,18.363,0,0,1,6.052,3.974,18.018,18.018,0,0,1,4,6.074A20.173,20.173,0,0,1,145.6,48.8Zm-8.3-8.745a12.037,12.037,0,0,0-.786-4.458,9.885,9.885,0,0,0-2.208-3.414,9.987,9.987,0,0,0-3.414-2.208,12.075,12.075,0,0,0-4.394-.786H115.249a11.944,11.944,0,0,0-4.426.786,9.922,9.922,0,0,0-3.435,2.208,9.705,9.705,0,0,0-2.218,3.414,12.218,12.218,0,0,0-.786,4.458v8.755a12.037,12.037,0,0,0,.786,4.458,9.609,9.609,0,0,0,2.218,3.414,10.08,10.08,0,0,0,3.435,2.208,12.125,12.125,0,0,0,4.426.786h11.179a11.944,11.944,0,0,0,4.426-.786,9.922,9.922,0,0,0,3.435-2.208,9.705,9.705,0,0,0,2.218-3.414,12.177,12.177,0,0,0,.786-4.458Z" transform="translate(3.763)" fill="#fff"/>
    <path id="Pfad_26" data-name="Pfad 26" d="M158.043,76.042h-8.3V30.23h8.3Zm39.642,0H185.892L167.208,57.325H161.36V48.958h5.848l18.685-18.717h11.792l-23.542,22.9Z" transform="translate(7.89 0.045)" fill="#fff"/>
    <path id="Pfad_27" data-name="Pfad 27" d="M245.936,57.554a20.166,20.166,0,0,1-1.432,7.7,18.343,18.343,0,0,1-4,6.074,18.14,18.14,0,0,1-6.052,3.974,20.044,20.044,0,0,1-7.614,1.422H215.6a20.194,20.194,0,0,1-7.635-1.422,18.124,18.124,0,0,1-6.074-3.974,18.425,18.425,0,0,1-4.006-6.074,19.933,19.933,0,0,1-1.454-7.7V48.8a19.939,19.939,0,0,1,1.454-7.678,17.92,17.92,0,0,1,10.08-10.048A19.953,19.953,0,0,1,215.6,29.64h11.243a20.008,20.008,0,0,1,7.614,1.432,18.305,18.305,0,0,1,6.052,3.974,18.018,18.018,0,0,1,4,6.074,20.173,20.173,0,0,1,1.432,7.678Zm-8.3-8.745a12.037,12.037,0,0,0-.786-4.458,9.884,9.884,0,0,0-2.208-3.414,9.987,9.987,0,0,0-3.414-2.208,12.033,12.033,0,0,0-4.394-.786H215.589a11.944,11.944,0,0,0-4.426.786,9.922,9.922,0,0,0-3.435,2.208,9.705,9.705,0,0,0-2.218,3.414,12.177,12.177,0,0,0-.786,4.458v8.755a12.036,12.036,0,0,0,.786,4.458,9.757,9.757,0,0,0,2.218,3.414,10.079,10.079,0,0,0,3.435,2.208,12.125,12.125,0,0,0,4.426.786h11.178a11.944,11.944,0,0,0,4.426-.786,9.922,9.922,0,0,0,3.435-2.208,9.7,9.7,0,0,0,2.218-3.414,12.219,12.219,0,0,0,.786-4.458Z" transform="translate(11.481)" fill="#fff"/>
    <path id="Pfad_28" data-name="Pfad 28" d="M291.08,38.543H272.772v37.5h-8.3v-37.5H246.14v-8.3h44.94Z" transform="translate(15.305 0.046)" fill="#fff"/>
    <path id="Pfad_29" data-name="Pfad 29" d="M301.893,76.042h-8.3V30.23h8.3Z" transform="translate(18.956 0.045)" fill="#fff"/>
    <path id="Pfad_30" data-name="Pfad 30" d="M356.089,72.534a4.04,4.04,0,0,1-.334,1.658,4.415,4.415,0,0,1-.894,1.325,4.173,4.173,0,0,1-2.951,1.206,4.48,4.48,0,0,1-1.551-.291,3.584,3.584,0,0,1-1.389-.926L318.623,43.823V76.088h-8.3V33.829a3.934,3.934,0,0,1,.722-2.315,4.5,4.5,0,0,1,1.842-1.551,4.152,4.152,0,0,1,2.423-.237,4.016,4.016,0,0,1,2.143,1.163L347.8,62.54V30.275h8.3V72.534Z" transform="translate(20.243 0)" fill="#fff"/>
    <path id="Pfad_31" data-name="Pfad 31" d="M130.269,47.75h-6.3v-6.3H115.03v6.3h-6.3v8.938h6.3v6.3h8.938v-6.3h6.3Z" transform="translate(4.735 0.909)" fill="#fff"/>
    <path id="Pfad_32" data-name="Pfad 32" d="M230.269,47.75h-6.3v-6.3H215.03v6.3h-6.3v8.938h6.3v6.3h8.938v-6.3h6.3Z" transform="translate(12.428 0.909)" fill="#fff"/>
  </g>
</svg>
