<svg id="Ebene_1" data-name="Ebene 1" xmlns="http://www.w3.org/2000/svg" viewBox="0 0 311 10.92"><defs><style>.cls-1{fill:#fff;}</style></defs><title>rokotin_logo_just_underline_white</title><path class="cls-1" d="M46.8,61l-2.24-9.63A3.4,3.4,0,0,1,44.5,51a.35.35,0,0,1,.27-.35,2.31,2.31,0,0,1,.69-.09H46c.49,0,.78.15.85.44l1.37,6.59.11.55h.06l.24-.56L51.4,51c.12-.29.43-.44.94-.44h.48a2.16,2.16,0,0,1,.62.07.29.29,0,0,1,.25.29.55.55,0,0,1-.07.25L49.31,61c-.1.21-.39.32-.89.32h-.79C47.13,61.31,46.85,61.2,46.8,61Z" transform="translate(-44.5 -50.48)"/><path class="cls-1" d="M61.45,61a.71.71,0,0,1,.09-.3L66,50.89c.09-.22.39-.32.9-.32h.8c.51,0,.78.1.84.32l2.41,9.81A.82.82,0,0,1,71,61a.29.29,0,0,1-.21.26,1.63,1.63,0,0,1-.61.09h-.67c-.5,0-.78-.11-.83-.32l-.44-1.86H64.52L63.68,61c-.1.21-.35.32-.73.32h-.61C61.75,61.31,61.45,61.21,61.45,61Zm6.29-3.89-.61-2.71a6,6,0,0,1-.12-1h-.07a9.12,9.12,0,0,1-.33,1l-1.22,2.71Z" transform="translate(-44.5 -50.48)"/><path class="cls-1" d="M82.27,60.34a4.34,4.34,0,0,1-1.11-3.27,7.81,7.81,0,0,1,1.35-4.76,5.06,5.06,0,0,1,4.38-1.83,7.89,7.89,0,0,1,1.42.13,4.48,4.48,0,0,1,1.17.37c.33.16.49.34.49.53a1.22,1.22,0,0,1-.21.56,2.76,2.76,0,0,1-.48.63.71.71,0,0,1-.46.28,2.39,2.39,0,0,1-.35-.14,4.15,4.15,0,0,0-.75-.24,4.88,4.88,0,0,0-1.09-.11,2.63,2.63,0,0,0-2.26,1.07,5.35,5.35,0,0,0-.78,3.17c0,1.78.76,2.67,2.29,2.67a5.22,5.22,0,0,0,1.49-.2,8.89,8.89,0,0,0,1.22-.5l.2-.08a.4.4,0,0,1,.16-.06c.12,0,.18.08.18.23a6.15,6.15,0,0,1-.11.94,1.84,1.84,0,0,1-.29.83,2.1,2.1,0,0,1-1.27.63,8.22,8.22,0,0,1-1.79.21A4.75,4.75,0,0,1,82.27,60.34Z" transform="translate(-44.5 -50.48)"/><path class="cls-1" d="M100.87,60.34a4.34,4.34,0,0,1-1.11-3.27,7.81,7.81,0,0,1,1.35-4.76,5.06,5.06,0,0,1,4.38-1.83,7.71,7.71,0,0,1,1.41.13,4.45,4.45,0,0,1,1.18.37c.32.16.49.34.49.53a1.22,1.22,0,0,1-.21.56,3.08,3.08,0,0,1-.48.63.71.71,0,0,1-.46.28,2.39,2.39,0,0,1-.35-.14,4.15,4.15,0,0,0-.75-.24,4.88,4.88,0,0,0-1.09-.11A2.63,2.63,0,0,0,103,53.56a5.35,5.35,0,0,0-.78,3.17c0,1.78.76,2.67,2.29,2.67a5.22,5.22,0,0,0,1.49-.2,8.89,8.89,0,0,0,1.22-.5l.2-.08a.35.35,0,0,1,.16-.06c.12,0,.18.08.18.23a6.15,6.15,0,0,1-.11.94,1.84,1.84,0,0,1-.29.83,2.1,2.1,0,0,1-1.27.63,8.3,8.3,0,0,1-1.8.21A4.74,4.74,0,0,1,100.87,60.34Z" transform="translate(-44.5 -50.48)"/><path class="cls-1" d="M118.18,60.84l1-9.78c0-.33.35-.49,1-.49h.54c.58,0,.87.16.87.47l-1,9.78c0,.33-.35.49-1,.49h-.53C118.47,61.31,118.18,61.15,118.18,60.84Z" transform="translate(-44.5 -50.48)"/><path class="cls-1" d="M131.91,61.19a.42.42,0,0,1-.2-.37l1-9.76c0-.33.35-.49,1-.49h.65a2,2,0,0,1,.61.08.74.74,0,0,1,.37.33l2.87,5.28a8.66,8.66,0,0,1,.43.91h.09a9.13,9.13,0,0,1,.07-1l.54-5.06c0-.33.35-.49,1-.49h.44a1.35,1.35,0,0,1,.67.12.4.4,0,0,1,.2.37l-1,9.76c0,.33-.35.49-1,.49H139a1.93,1.93,0,0,1-.6-.08.72.72,0,0,1-.38-.33l-2.93-5.36a5.15,5.15,0,0,1-.44-.9l-.09,0a9.37,9.37,0,0,1-.08,1L134,60.82c0,.33-.35.49-1,.49h-.45A1.37,1.37,0,0,1,131.91,61.19Z" transform="translate(-44.5 -50.48)"/><path class="cls-1" d="M152,61.17a.49.49,0,0,1-.12-.38l1-9.58a.68.68,0,0,1,.19-.47.71.71,0,0,1,.48-.14h5.58a.34.34,0,0,1,.31.14.93.93,0,0,1,.09.47v.14c0,.83-.21,1.25-.58,1.25h-3.85l-.24,2.21h3.42a.34.34,0,0,1,.3.14,1,1,0,0,1,.09.47v.12c0,.85-.21,1.27-.58,1.27h-3.43l-.27,2.47h3.84a.36.36,0,0,1,.31.14,1,1,0,0,1,.09.47V60c0,.83-.21,1.25-.58,1.25h-5.62A.64.64,0,0,1,152,61.17Z" transform="translate(-44.5 -50.48)"/><path class="cls-1" d="M170.69,61.24a3,3,0,0,1-1.18-.47.68.68,0,0,1-.32-.56,5.53,5.53,0,0,1,.11-1.36c.08-.22.17-.33.28-.33a1.09,1.09,0,0,1,.37.18,5.52,5.52,0,0,0,.9.51,2.71,2.71,0,0,0,1.08.19,2.12,2.12,0,0,0,1.09-.27,1,1,0,0,0,.45-.9.82.82,0,0,0-.35-.7,5.7,5.7,0,0,0-1.14-.6c-.29-.12-.5-.22-.64-.29a3.73,3.73,0,0,1-1.32-1,2.52,2.52,0,0,1-.48-1.64,3,3,0,0,1,1.16-2.68,4.65,4.65,0,0,1,2.81-.83,5.24,5.24,0,0,1,1.43.17,2.5,2.5,0,0,1,.94.44.55.55,0,0,1,.26.42A1.23,1.23,0,0,1,176,52a2.74,2.74,0,0,1-.41.58c-.16.17-.29.25-.4.25a.67.67,0,0,1-.19,0l-.22-.1a3.55,3.55,0,0,0-1.25-.23,1.81,1.81,0,0,0-1.2.3.9.9,0,0,0-.32.66,1,1,0,0,0,.36.79,5.17,5.17,0,0,0,1.14.61l.44.2a4.53,4.53,0,0,1,1.46,1,2.25,2.25,0,0,1,.54,1.6,3.42,3.42,0,0,1-1.13,2.9,4.31,4.31,0,0,1-2.68.85A6.8,6.8,0,0,1,170.69,61.24Z" transform="translate(-44.5 -50.48)"/><path class="cls-1" d="M200.29,61.24a3,3,0,0,1-1.18-.47.68.68,0,0,1-.32-.56,5.53,5.53,0,0,1,.11-1.36c.08-.22.17-.33.28-.33a1.09,1.09,0,0,1,.37.18,5.52,5.52,0,0,0,.9.51,2.71,2.71,0,0,0,1.08.19,2.12,2.12,0,0,0,1.09-.27,1,1,0,0,0,.45-.9.82.82,0,0,0-.35-.7,5.7,5.7,0,0,0-1.14-.6c-.29-.12-.5-.22-.64-.29a3.73,3.73,0,0,1-1.32-1,2.52,2.52,0,0,1-.48-1.64,3,3,0,0,1,1.16-2.68,4.65,4.65,0,0,1,2.81-.83,5.24,5.24,0,0,1,1.43.17,2.5,2.5,0,0,1,.94.44.55.55,0,0,1,.26.42,1.23,1.23,0,0,1-.16.53,2.74,2.74,0,0,1-.41.58c-.16.17-.29.25-.4.25a.67.67,0,0,1-.19,0l-.22-.1a3.55,3.55,0,0,0-1.25-.23,1.81,1.81,0,0,0-1.2.3.9.9,0,0,0-.32.66,1,1,0,0,0,.36.79,5.17,5.17,0,0,0,1.14.61l.44.2a4.53,4.53,0,0,1,1.46,1,2.25,2.25,0,0,1,.54,1.6,3.42,3.42,0,0,1-1.13,2.9,4.31,4.31,0,0,1-2.68.85A6.8,6.8,0,0,1,200.29,61.24Z" transform="translate(-44.5 -50.48)"/><path class="cls-1" d="M214.61,61a.71.71,0,0,1,.09-.3l4.44-9.81c.09-.22.39-.32.9-.32h.8c.5,0,.78.1.83.32l2.41,9.81a.63.63,0,0,1,0,.26.29.29,0,0,1-.21.26,1.63,1.63,0,0,1-.61.09h-.67c-.5,0-.78-.11-.83-.32l-.44-1.86h-3.69L216.84,61c-.1.21-.35.32-.74.32h-.61C214.91,61.31,214.61,61.21,214.61,61Zm6.29-3.89-.61-2.71a5,5,0,0,1-.13-1h-.06a9.12,9.12,0,0,1-.33,1l-1.22,2.71Z" transform="translate(-44.5 -50.48)"/><path class="cls-1" d="M236.12,61l-2.24-9.63a3.4,3.4,0,0,1-.06-.35.35.35,0,0,1,.27-.35,2.31,2.31,0,0,1,.69-.09h.5c.5,0,.79.15.86.44l1.37,6.59.11.55h.06l.24-.56,2.8-6.58c.12-.29.43-.44.94-.44h.47a2.19,2.19,0,0,1,.63.07.28.28,0,0,1,.24.29.54.54,0,0,1-.06.25L238.63,61c-.1.21-.39.32-.89.32H237C236.45,61.31,236.17,61.2,236.12,61Z" transform="translate(-44.5 -50.48)"/><path class="cls-1" d="M252.53,61.17a.46.46,0,0,1-.13-.38l1-9.58a.69.69,0,0,1,.2-.47.71.71,0,0,1,.48-.14h5.58a.37.37,0,0,1,.31.14.93.93,0,0,1,.09.47v.14c0,.83-.22,1.25-.58,1.25h-3.85l-.24,2.21h3.42a.34.34,0,0,1,.3.14,1,1,0,0,1,.09.47v.12c0,.85-.21,1.27-.58,1.27h-3.43l-.27,2.47h3.84a.36.36,0,0,1,.31.14,1,1,0,0,1,.09.47V60c0,.83-.22,1.25-.58,1.25H253A.64.64,0,0,1,252.53,61.17Z" transform="translate(-44.5 -50.48)"/><path class="cls-1" d="M282.77,61.17a.46.46,0,0,1-.13-.38l1-9.73c0-.33.35-.49,1-.49h.53c.58,0,.87.16.87.47l-.87,8.24h3.4a.34.34,0,0,1,.31.14,1,1,0,0,1,.09.47V60c0,.87-.21,1.3-.58,1.3h-5.19A.64.64,0,0,1,282.77,61.17Z" transform="translate(-44.5 -50.48)"/><path class="cls-1" d="M299.09,60.84l1-9.78c0-.33.35-.49,1-.49h.53c.58,0,.87.16.87.47l-1,9.78c0,.33-.35.49-1,.49H300C299.38,61.31,299.09,61.15,299.09,60.84Z" transform="translate(-44.5 -50.48)"/><path class="cls-1" d="M315,61l-2.24-9.63a3.4,3.4,0,0,1-.06-.35.35.35,0,0,1,.27-.35,2.22,2.22,0,0,1,.69-.09h.5c.5,0,.78.15.86.44l1.37,6.59.11.55h.06l.24-.56L319.58,51c.13-.29.44-.44.95-.44H321a2.24,2.24,0,0,1,.63.07.28.28,0,0,1,.24.29.54.54,0,0,1-.06.25L317.49,61c-.09.21-.38.32-.88.32h-.8C315.32,61.31,315,61.2,315,61Z" transform="translate(-44.5 -50.48)"/><path class="cls-1" d="M331.39,61.17a.49.49,0,0,1-.12-.38l1-9.58a.73.73,0,0,1,.19-.47.74.74,0,0,1,.48-.14h5.59a.34.34,0,0,1,.3.14.93.93,0,0,1,.09.47v.14c0,.83-.21,1.25-.58,1.25h-3.84l-.24,2.21h3.41A.34.34,0,0,1,338,55a1,1,0,0,1,.09.47v.12c0,.85-.21,1.27-.58,1.27h-3.43l-.28,2.47h3.85a.34.34,0,0,1,.3.14,1,1,0,0,1,.09.47V60c0,.83-.21,1.25-.58,1.25h-5.61A.67.67,0,0,1,331.39,61.17Z" transform="translate(-44.5 -50.48)"/><path class="cls-1" d="M350.05,61.24a3,3,0,0,1-1.19-.47.71.71,0,0,1-.32-.56,4.93,4.93,0,0,1,.12-1.36c.07-.22.17-.33.28-.33a1.19,1.19,0,0,1,.37.18,5.13,5.13,0,0,0,.9.51,2.64,2.64,0,0,0,1.08.19,2.06,2.06,0,0,0,1.08-.27.94.94,0,0,0,.46-.9.81.81,0,0,0-.36-.7,5.7,5.7,0,0,0-1.14-.6l-.64-.29a3.73,3.73,0,0,1-1.32-1,2.52,2.52,0,0,1-.48-1.64,3.06,3.06,0,0,1,1.16-2.68,4.67,4.67,0,0,1,2.81-.83,5.15,5.15,0,0,1,1.43.17,2.55,2.55,0,0,1,.95.44.58.58,0,0,1,.26.42,1.27,1.27,0,0,1-.17.53,2.71,2.71,0,0,1-.4.58.62.62,0,0,1-.41.25.76.76,0,0,1-.19,0l-.22-.1a3.47,3.47,0,0,0-1.25-.23,1.76,1.76,0,0,0-1.19.3.9.9,0,0,0-.32.66,1,1,0,0,0,.36.79,5.3,5.3,0,0,0,1.13.61l.45.2a4.48,4.48,0,0,1,1.45,1,2.21,2.21,0,0,1,.55,1.6,3.42,3.42,0,0,1-1.13,2.9,4.34,4.34,0,0,1-2.69.85A6.71,6.71,0,0,1,350.05,61.24Z" transform="translate(-44.5 -50.48)"/></svg>