<svg id="Ebene_1" data-name="Ebene 1" xmlns="http://www.w3.org/2000/svg" viewBox="0 0 311 59.8"><defs><style>.cls-1{fill:#3bc4e1;}.cls-2{fill:#c4c4c4;}</style></defs><title>rokotin_logo_blue+underline</title><path class="cls-1" d="M86.22,36.24a15.65,15.65,0,0,1-.64,4.63,13.15,13.15,0,0,1-1.73,3.59,12.35,12.35,0,0,1-2.52,2.67,15.73,15.73,0,0,1-3,1.82,14.42,14.42,0,0,1-3.14,1,15.39,15.39,0,0,1-3,.32L88,64H76.32L60.54,50.3H55.1V42.73H72.21a8.83,8.83,0,0,0,2.61-.6,6.45,6.45,0,0,0,2-1.29,5.51,5.51,0,0,0,1.32-2,6.93,6.93,0,0,0,.47-2.63V31.46a2.43,2.43,0,0,0-.16-1,1.22,1.22,0,0,0-.41-.5,1.26,1.26,0,0,0-.52-.19l-.51,0h-25V64H44.5V26a3.87,3.87,0,0,1,.29-1.48,4,4,0,0,1,.8-1.23,3.48,3.48,0,0,1,1.21-.81,3.8,3.8,0,0,1,1.51-.29H77.05a9.15,9.15,0,0,1,4.28.91,8.92,8.92,0,0,1,2.84,2.3,9.15,9.15,0,0,1,1.57,3,10.45,10.45,0,0,1,.48,3Z" transform="translate(-44.5 -21.6)"/><path class="cls-1" d="M157.12,64h-7.57V22.21h7.57Zm36.13,0H182.5l-17-17.06h-5.32V39.27h5.32l17-17.06h10.75L171.79,43.08Z" transform="translate(-44.5 -21.6)"/><path class="cls-1" d="M287.74,29.78H271.06V64h-7.57V29.78H246.78V22.21h41Z" transform="translate(-44.5 -21.6)"/><path class="cls-1" d="M304.4,64h-7.57V22.21h7.57Z" transform="translate(-44.5 -21.6)"/><path class="cls-1" d="M355.5,60.72a3.66,3.66,0,0,1-.31,1.52,3.85,3.85,0,0,1-.81,1.2,3.6,3.6,0,0,1-1.21.8,3.73,3.73,0,0,1-1.48.3,4,4,0,0,1-1.42-.27,3.25,3.25,0,0,1-1.26-.84L321.35,34.55V64h-7.57V25.44a3.59,3.59,0,0,1,.66-2.11,4,4,0,0,1,1.67-1.41,3.73,3.73,0,0,1,2.21-.22,3.55,3.55,0,0,1,1.95,1.06l27.66,28.85V22.21h7.57Z" transform="translate(-44.5 -21.6)"/><path class="cls-1" d="M140.46,47a18.4,18.4,0,0,1-1.31,7A16.39,16.39,0,0,1,130,63.22a18.37,18.37,0,0,1-7,1.29H112.8a18.4,18.4,0,0,1-7-1.29,16.51,16.51,0,0,1-5.53-3.63,16.84,16.84,0,0,1-3.66-5.53,18.21,18.21,0,0,1-1.32-7v-8a18.22,18.22,0,0,1,1.32-7,16.38,16.38,0,0,1,9.19-9.16,18.22,18.22,0,0,1,7-1.31h10.25a18.18,18.18,0,0,1,7,1.31,16.76,16.76,0,0,1,5.51,3.62,16.48,16.48,0,0,1,3.64,5.54,18.4,18.4,0,0,1,1.31,7Zm-7.57-8a11.12,11.12,0,0,0-.71-4.06,8.79,8.79,0,0,0-5.12-5.13,11,11,0,0,0-4-.71H112.8a11.11,11.11,0,0,0-4,.71,9.35,9.35,0,0,0-3.13,2,8.9,8.9,0,0,0-2,3.12,10.92,10.92,0,0,0-.71,4.06v8a11,11,0,0,0,.71,4.07,9,9,0,0,0,2,3.11,9.35,9.35,0,0,0,3.13,2,11.11,11.11,0,0,0,4,.71H123a11.13,11.13,0,0,0,4-.71,9.35,9.35,0,0,0,3.13-2,9,9,0,0,0,2-3.11,11.21,11.21,0,0,0,.71-4.07Z" transform="translate(-44.5 -21.6)"/><polygon class="cls-1" points="83.22 17.38 77.47 17.38 77.47 11.64 69.33 11.64 69.33 17.38 63.58 17.38 63.58 25.53 69.33 25.53 69.33 31.27 77.47 31.27 77.47 25.53 83.22 25.53 83.22 17.38"/><path class="cls-1" d="M241.78,47a18.4,18.4,0,0,1-1.31,7,16.39,16.39,0,0,1-9.15,9.16,18.37,18.37,0,0,1-6.95,1.29H214.12a18.4,18.4,0,0,1-7-1.29,16.51,16.51,0,0,1-5.53-3.63A16.69,16.69,0,0,1,198,54.06a18.21,18.21,0,0,1-1.32-7v-8a18.22,18.22,0,0,1,1.32-7,16.38,16.38,0,0,1,9.19-9.16,18.22,18.22,0,0,1,7-1.31h10.25a18.18,18.18,0,0,1,6.95,1.31,16.76,16.76,0,0,1,5.51,3.62,16.48,16.48,0,0,1,3.64,5.54,18.4,18.4,0,0,1,1.31,7Zm-7.57-8A11.12,11.12,0,0,0,233.5,35a8.77,8.77,0,0,0-5.13-5.13,11,11,0,0,0-4-.71H214.12a11.11,11.11,0,0,0-4,.71,9.35,9.35,0,0,0-3.13,2,8.9,8.9,0,0,0-2,3.12,10.92,10.92,0,0,0-.71,4.06v8a11,11,0,0,0,.71,4.07,9,9,0,0,0,2,3.11,9.35,9.35,0,0,0,3.13,2,11.11,11.11,0,0,0,4,.71h10.19a11.13,11.13,0,0,0,4-.71,9.35,9.35,0,0,0,3.13-2,9,9,0,0,0,2-3.11,11.21,11.21,0,0,0,.71-4.07Z" transform="translate(-44.5 -21.6)"/><polygon class="cls-1" points="184.53 17.38 178.79 17.38 178.79 11.64 170.65 11.64 170.65 17.38 164.9 17.38 164.9 25.53 170.65 25.53 170.65 31.27 178.79 31.27 178.79 25.53 184.53 25.53 184.53 17.38"/><path class="cls-2" d="M46.8,81l-2.24-9.63A3.4,3.4,0,0,1,44.5,71a.35.35,0,0,1,.27-.35,2.31,2.31,0,0,1,.69-.09H46c.49,0,.78.15.85.44l1.37,6.59.11.55h.06l.24-.56L51.4,71c.12-.29.43-.44.94-.44h.48a2.16,2.16,0,0,1,.62.07.29.29,0,0,1,.25.29.55.55,0,0,1-.07.25L49.31,81c-.1.21-.39.32-.89.32h-.79C47.13,81.31,46.85,81.2,46.8,81Z" transform="translate(-44.5 -21.6)"/><path class="cls-2" d="M61.45,81a.71.71,0,0,1,.09-.3L66,70.89c.09-.22.39-.32.9-.32h.8c.51,0,.78.1.84.32l2.41,9.81A.82.82,0,0,1,71,81a.29.29,0,0,1-.21.26,1.63,1.63,0,0,1-.61.09h-.67c-.5,0-.78-.11-.83-.32l-.44-1.86H64.52L63.68,81c-.1.21-.35.32-.73.32h-.61C61.75,81.31,61.45,81.21,61.45,81Zm6.29-3.89-.61-2.71a6,6,0,0,1-.12-1h-.07a9.12,9.12,0,0,1-.33,1l-1.22,2.71Z" transform="translate(-44.5 -21.6)"/><path class="cls-2" d="M82.27,80.34a4.34,4.34,0,0,1-1.11-3.27,7.81,7.81,0,0,1,1.35-4.76,5.06,5.06,0,0,1,4.38-1.83,7.89,7.89,0,0,1,1.42.13,4.48,4.48,0,0,1,1.17.37c.33.16.49.34.49.53a1.22,1.22,0,0,1-.21.56,2.76,2.76,0,0,1-.48.63.71.71,0,0,1-.46.28,2.39,2.39,0,0,1-.35-.14,4.15,4.15,0,0,0-.75-.24,4.88,4.88,0,0,0-1.09-.11,2.63,2.63,0,0,0-2.26,1.07,5.35,5.35,0,0,0-.78,3.17c0,1.78.76,2.67,2.29,2.67a5.22,5.22,0,0,0,1.49-.2,8.89,8.89,0,0,0,1.22-.5l.2-.08a.4.4,0,0,1,.16-.06c.12,0,.18.08.18.23a6.15,6.15,0,0,1-.11.94,1.84,1.84,0,0,1-.29.83,2.1,2.1,0,0,1-1.27.63,8.22,8.22,0,0,1-1.79.21A4.75,4.75,0,0,1,82.27,80.34Z" transform="translate(-44.5 -21.6)"/><path class="cls-2" d="M100.87,80.34a4.34,4.34,0,0,1-1.11-3.27,7.81,7.81,0,0,1,1.35-4.76,5.06,5.06,0,0,1,4.38-1.83,7.71,7.71,0,0,1,1.41.13,4.45,4.45,0,0,1,1.18.37c.32.16.49.34.49.53a1.22,1.22,0,0,1-.21.56,3.08,3.08,0,0,1-.48.63.71.71,0,0,1-.46.28,2.39,2.39,0,0,1-.35-.14,4.15,4.15,0,0,0-.75-.24,4.88,4.88,0,0,0-1.09-.11A2.63,2.63,0,0,0,103,73.56a5.35,5.35,0,0,0-.78,3.17c0,1.78.76,2.67,2.29,2.67a5.22,5.22,0,0,0,1.49-.2,8.89,8.89,0,0,0,1.22-.5l.2-.08a.35.35,0,0,1,.16-.06c.12,0,.18.08.18.23a6.15,6.15,0,0,1-.11.94,1.84,1.84,0,0,1-.29.83,2.1,2.1,0,0,1-1.27.63,8.3,8.3,0,0,1-1.8.21A4.74,4.74,0,0,1,100.87,80.34Z" transform="translate(-44.5 -21.6)"/><path class="cls-2" d="M118.18,80.84l1-9.78c0-.33.35-.49,1-.49h.54c.58,0,.87.16.87.47l-1,9.78c0,.33-.35.49-1,.49h-.53C118.47,81.31,118.18,81.15,118.18,80.84Z" transform="translate(-44.5 -21.6)"/><path class="cls-2" d="M131.91,81.19a.42.42,0,0,1-.2-.37l1-9.76c0-.33.35-.49,1-.49h.65a2,2,0,0,1,.61.08.74.74,0,0,1,.37.33l2.87,5.28a8.66,8.66,0,0,1,.43.91h.09a9.13,9.13,0,0,1,.07-1l.54-5.06c0-.33.35-.49,1-.49h.44a1.35,1.35,0,0,1,.67.12.4.4,0,0,1,.2.37l-1,9.76c0,.33-.35.49-1,.49H139a1.93,1.93,0,0,1-.6-.08.72.72,0,0,1-.38-.33l-2.93-5.36a5.15,5.15,0,0,1-.44-.9l-.09,0a9.37,9.37,0,0,1-.08,1L134,80.82c0,.33-.35.49-1,.49h-.45A1.37,1.37,0,0,1,131.91,81.19Z" transform="translate(-44.5 -21.6)"/><path class="cls-2" d="M152,81.17a.49.49,0,0,1-.12-.38l1-9.58a.68.68,0,0,1,.19-.47.71.71,0,0,1,.48-.14h5.58a.34.34,0,0,1,.31.14.93.93,0,0,1,.09.47v.14c0,.83-.21,1.25-.58,1.25h-3.85l-.24,2.21h3.42a.34.34,0,0,1,.3.14,1,1,0,0,1,.09.47v.12c0,.85-.21,1.27-.58,1.27h-3.43l-.27,2.47h3.84a.36.36,0,0,1,.31.14,1,1,0,0,1,.09.47V80c0,.83-.21,1.25-.58,1.25h-5.62A.64.64,0,0,1,152,81.17Z" transform="translate(-44.5 -21.6)"/><path class="cls-2" d="M170.69,81.24a3,3,0,0,1-1.18-.47.68.68,0,0,1-.32-.56,5.53,5.53,0,0,1,.11-1.36c.08-.22.17-.33.28-.33a1.09,1.09,0,0,1,.37.18,5.52,5.52,0,0,0,.9.51,2.71,2.71,0,0,0,1.08.19,2.12,2.12,0,0,0,1.09-.27,1,1,0,0,0,.45-.9.82.82,0,0,0-.35-.7,5.7,5.7,0,0,0-1.14-.6c-.29-.12-.5-.22-.64-.29a3.73,3.73,0,0,1-1.32-1,2.52,2.52,0,0,1-.48-1.64,3,3,0,0,1,1.16-2.68,4.65,4.65,0,0,1,2.81-.83,5.24,5.24,0,0,1,1.43.17,2.5,2.5,0,0,1,.94.44.55.55,0,0,1,.26.42A1.23,1.23,0,0,1,176,72a2.74,2.74,0,0,1-.41.58c-.16.17-.29.25-.4.25a.67.67,0,0,1-.19-.05l-.22-.1a3.55,3.55,0,0,0-1.25-.23,1.81,1.81,0,0,0-1.2.3.9.9,0,0,0-.32.66,1,1,0,0,0,.36.79,5.17,5.17,0,0,0,1.14.61l.44.2a4.53,4.53,0,0,1,1.46,1,2.25,2.25,0,0,1,.54,1.6,3.42,3.42,0,0,1-1.13,2.9,4.31,4.31,0,0,1-2.68.85A6.8,6.8,0,0,1,170.69,81.24Z" transform="translate(-44.5 -21.6)"/><path class="cls-2" d="M200.29,81.24a3,3,0,0,1-1.18-.47.68.68,0,0,1-.32-.56,5.53,5.53,0,0,1,.11-1.36c.08-.22.17-.33.28-.33a1.09,1.09,0,0,1,.37.18,5.52,5.52,0,0,0,.9.51,2.71,2.71,0,0,0,1.08.19,2.12,2.12,0,0,0,1.09-.27,1,1,0,0,0,.45-.9.82.82,0,0,0-.35-.7,5.7,5.7,0,0,0-1.14-.6c-.29-.12-.5-.22-.64-.29a3.73,3.73,0,0,1-1.32-1,2.52,2.52,0,0,1-.48-1.64,3,3,0,0,1,1.16-2.68,4.65,4.65,0,0,1,2.81-.83,5.24,5.24,0,0,1,1.43.17,2.5,2.5,0,0,1,.94.44.55.55,0,0,1,.26.42,1.23,1.23,0,0,1-.16.53,2.74,2.74,0,0,1-.41.58c-.16.17-.29.25-.4.25a.67.67,0,0,1-.19-.05l-.22-.1a3.55,3.55,0,0,0-1.25-.23,1.81,1.81,0,0,0-1.2.3.9.9,0,0,0-.32.66,1,1,0,0,0,.36.79,5.17,5.17,0,0,0,1.14.61l.44.2a4.53,4.53,0,0,1,1.46,1,2.25,2.25,0,0,1,.54,1.6,3.42,3.42,0,0,1-1.13,2.9,4.31,4.31,0,0,1-2.68.85A6.8,6.8,0,0,1,200.29,81.24Z" transform="translate(-44.5 -21.6)"/><path class="cls-2" d="M214.61,81a.71.71,0,0,1,.09-.3l4.44-9.81c.09-.22.39-.32.9-.32h.8c.5,0,.78.1.83.32l2.41,9.81a.63.63,0,0,1,0,.26.29.29,0,0,1-.21.26,1.63,1.63,0,0,1-.61.09h-.67c-.5,0-.78-.11-.83-.32l-.44-1.86h-3.69L216.84,81c-.1.21-.35.32-.74.32h-.61C214.91,81.31,214.61,81.21,214.61,81Zm6.29-3.89-.61-2.71a5,5,0,0,1-.13-1h-.06a9.12,9.12,0,0,1-.33,1l-1.22,2.71Z" transform="translate(-44.5 -21.6)"/><path class="cls-2" d="M236.12,81l-2.24-9.63a3.4,3.4,0,0,1-.06-.35.35.35,0,0,1,.27-.35,2.31,2.31,0,0,1,.69-.09h.5c.5,0,.79.15.86.44l1.37,6.59.11.55h.06l.24-.56,2.8-6.58c.12-.29.43-.44.94-.44h.47a2.19,2.19,0,0,1,.63.07.28.28,0,0,1,.24.29.54.54,0,0,1-.06.25L238.63,81c-.1.21-.39.32-.89.32H237C236.45,81.31,236.17,81.2,236.12,81Z" transform="translate(-44.5 -21.6)"/><path class="cls-2" d="M252.53,81.17a.46.46,0,0,1-.13-.38l1-9.58a.69.69,0,0,1,.2-.47.71.71,0,0,1,.48-.14h5.58a.37.37,0,0,1,.31.14.93.93,0,0,1,.09.47v.14c0,.83-.22,1.25-.58,1.25h-3.85l-.24,2.21h3.42a.34.34,0,0,1,.3.14,1,1,0,0,1,.09.47v.12c0,.85-.21,1.27-.58,1.27h-3.43l-.27,2.47h3.84a.36.36,0,0,1,.31.14,1,1,0,0,1,.09.47V80c0,.83-.22,1.25-.58,1.25H253A.64.64,0,0,1,252.53,81.17Z" transform="translate(-44.5 -21.6)"/><path class="cls-2" d="M282.77,81.17a.46.46,0,0,1-.13-.38l1-9.73c0-.33.35-.49,1-.49h.53c.58,0,.87.16.87.47l-.87,8.24h3.4a.34.34,0,0,1,.31.14,1,1,0,0,1,.09.47V80c0,.87-.21,1.3-.58,1.3h-5.19A.64.64,0,0,1,282.77,81.17Z" transform="translate(-44.5 -21.6)"/><path class="cls-2" d="M299.09,80.84l1-9.78c0-.33.35-.49,1-.49h.53c.58,0,.87.16.87.47l-1,9.78c0,.33-.35.49-1,.49H300C299.38,81.31,299.09,81.15,299.09,80.84Z" transform="translate(-44.5 -21.6)"/><path class="cls-2" d="M315,81l-2.24-9.63a3.4,3.4,0,0,1-.06-.35.35.35,0,0,1,.27-.35,2.22,2.22,0,0,1,.69-.09h.5c.5,0,.78.15.86.44l1.37,6.59.11.55h.06l.24-.56L319.58,71c.13-.29.44-.44.95-.44H321a2.24,2.24,0,0,1,.63.07.28.28,0,0,1,.24.29.54.54,0,0,1-.06.25L317.49,81c-.09.21-.38.32-.88.32h-.8C315.32,81.31,315,81.2,315,81Z" transform="translate(-44.5 -21.6)"/><path class="cls-2" d="M331.39,81.17a.49.49,0,0,1-.12-.38l1-9.58a.73.73,0,0,1,.19-.47.74.74,0,0,1,.48-.14h5.59a.34.34,0,0,1,.3.14.93.93,0,0,1,.09.47v.14c0,.83-.21,1.25-.58,1.25h-3.84l-.24,2.21h3.41A.34.34,0,0,1,338,75a1,1,0,0,1,.09.47v.12c0,.85-.21,1.27-.58,1.27h-3.43l-.28,2.47h3.85a.34.34,0,0,1,.3.14,1,1,0,0,1,.09.47V80c0,.83-.21,1.25-.58,1.25h-5.61A.67.67,0,0,1,331.39,81.17Z" transform="translate(-44.5 -21.6)"/><path class="cls-2" d="M350.05,81.24a3,3,0,0,1-1.19-.47.71.71,0,0,1-.32-.56,4.93,4.93,0,0,1,.12-1.36c.07-.22.17-.33.28-.33a1.19,1.19,0,0,1,.37.18,5.13,5.13,0,0,0,.9.51,2.64,2.64,0,0,0,1.08.19,2.06,2.06,0,0,0,1.08-.27.94.94,0,0,0,.46-.9.81.81,0,0,0-.36-.7,5.7,5.7,0,0,0-1.14-.6l-.64-.29a3.73,3.73,0,0,1-1.32-1,2.52,2.52,0,0,1-.48-1.64,3.06,3.06,0,0,1,1.16-2.68,4.67,4.67,0,0,1,2.81-.83,5.15,5.15,0,0,1,1.43.17,2.55,2.55,0,0,1,.95.44.58.58,0,0,1,.26.42,1.27,1.27,0,0,1-.17.53,2.71,2.71,0,0,1-.4.58.62.62,0,0,1-.41.25.76.76,0,0,1-.19-.05l-.22-.1a3.47,3.47,0,0,0-1.25-.23,1.76,1.76,0,0,0-1.19.3.9.9,0,0,0-.32.66,1,1,0,0,0,.36.79,5.3,5.3,0,0,0,1.13.61l.45.2a4.48,4.48,0,0,1,1.45,1,2.21,2.21,0,0,1,.55,1.6,3.42,3.42,0,0,1-1.13,2.9,4.34,4.34,0,0,1-2.69.85A6.71,6.71,0,0,1,350.05,81.24Z" transform="translate(-44.5 -21.6)"/></svg>