<svg xmlns="http://www.w3.org/2000/svg" width="42" height="42.001" viewBox="0 0 42 42.001">
  <g id="settings-icon" transform="translate(-2 -1.999)">
    <path id="Pfad_21" data-name="Pfad 21" d="M3.75,10.75h5.5a6.965,6.965,0,0,0,13.5,0h19.5a1.75,1.75,0,1,0,0-3.5h-19.5a6.965,6.965,0,0,0-13.5,0H3.75a1.75,1.75,0,1,0,0,3.5ZM16,5.5A3.5,3.5,0,1,1,12.5,9,3.5,3.5,0,0,1,16,5.5Z" fill="#3bc4e1"/>
    <path id="Pfad_22" data-name="Pfad 22" d="M3.75,42.75h19.5a6.965,6.965,0,0,0,13.5,0h5.5a1.75,1.75,0,0,0,0-3.5h-5.5a6.965,6.965,0,0,0-13.5,0H3.75a1.75,1.75,0,0,0,0,3.5ZM30,37.5A3.5,3.5,0,1,1,26.5,41,3.5,3.5,0,0,1,30,37.5Z" transform="translate(0 -18)" fill="#3bc4e1"/>
    <path id="Pfad_23" data-name="Pfad 23" d="M3.75,74.75h5.5a6.965,6.965,0,0,0,13.5,0h19.5a1.75,1.75,0,0,0,0-3.5h-19.5a6.965,6.965,0,0,0-13.5,0H3.75a1.75,1.75,0,0,0,0,3.5ZM16,69.5A3.5,3.5,0,1,1,12.5,73,3.5,3.5,0,0,1,16,69.5Z" transform="translate(0 -36)" fill="#3bc4e1"/>
  </g>
</svg>
