<svg xmlns="http://www.w3.org/2000/svg" width="52.18" height="44.449" viewBox="0 0 52.18 44.449">
  <g id="travel-icon" transform="translate(0)">
    <g id="Gruppe_4" data-name="Gruppe 4" transform="translate(0 0)">
      <g id="Gruppe_3" data-name="Gruppe 3">
        <path id="Pfad_5" data-name="Pfad 5" d="M52.348,16.73H41.719V9.966A.966.966,0,0,0,40.753,9H21.427a.967.967,0,0,0-.966.966V16.73H9.831A4.837,4.837,0,0,0,5,21.562V48.618a4.837,4.837,0,0,0,4.831,4.831H52.348a4.837,4.837,0,0,0,4.831-4.831V21.562A4.837,4.837,0,0,0,52.348,16.73Zm-29.955-5.8H39.786v5.8H22.393ZM55.247,48.618a2.9,2.9,0,0,1-2.9,2.9H9.831a2.9,2.9,0,0,1-2.9-2.9V21.562a2.9,2.9,0,0,1,2.9-2.9H52.348a2.9,2.9,0,0,1,2.9,2.9Z" transform="translate(-5 -9)" fill="#fff"/>
        <path id="Pfad_6" data-name="Pfad 6" d="M26.082,42.446l-11.25-2.812a.966.966,0,0,0-1.172.7l-.937,3.75a.964.964,0,0,0,.7,1.17l11.25,2.812a.943.943,0,0,0,.236.029.966.966,0,0,0,.936-.732l.937-3.75a.964.964,0,0,0-.7-1.17Zm-1.876,3.515-9.375-2.343.469-1.875,9.375,2.343Z" transform="translate(-5.259 -10.032)" fill="#fff"/>
        <path id="Pfad_7" data-name="Pfad 7" d="M21.831,34.663A4.831,4.831,0,1,0,17,29.831,4.837,4.837,0,0,0,21.831,34.663Zm0-7.73a2.9,2.9,0,1,1-2.9,2.9A2.9,2.9,0,0,1,21.831,26.933Z" transform="translate(-5.405 -9.539)" fill="#fff"/>
        <path id="Pfad_8" data-name="Pfad 8" d="M47.864,30.474a.962.962,0,0,0-.713-.2L35.644,31.717a.965.965,0,0,0-.839,1.078l.479,3.835a.966.966,0,0,0,.958.846,1.026,1.026,0,0,0,.121-.008L47.87,36.031a.966.966,0,0,0,.839-1.078l-.479-3.835A.972.972,0,0,0,47.864,30.474ZM37.082,35.432l-.24-1.917,9.589-1.2.24,1.918Z" transform="translate(-6.004 -9.717)" fill="#fff"/>
      </g>
    </g>
  </g>
</svg>
