<svg id="Ebene_1" data-name="Ebene 1" xmlns="http://www.w3.org/2000/svg" viewBox="0 0 70 70"><defs><style>.cls-1{fill:#3bc4e1;}.cls-1,.cls-2,.cls-4,.cls-5{stroke:#fff;}.cls-1,.cls-2,.cls-3{stroke-linecap:round;}.cls-1,.cls-2,.cls-3,.cls-4,.cls-5{stroke-linejoin:round;stroke-width:2px;}.cls-2{fill:#fff;}.cls-3,.cls-4,.cls-5{fill:none;}.cls-3{stroke:#3bc4e1;}.cls-5{stroke-linecap:square;}</style></defs><title>0</title><rect class="cls-1" x="18.98" y="43.8" width="17.23" height="3.74" transform="translate(34.04 -7.3) rotate(38.08)"/><path class="cls-2" d="M24.08,40.54,39.93,20.32a5.92,5.92,0,0,1,8.32-1h0a5.93,5.93,0,0,1,1,8.33L33.42,47.86"/><line class="cls-2" x1="50.35" y1="16.63" x2="53.28" y2="12.89"/><line class="cls-3" x1="39.48" y1="20.89" x2="44.44" y2="24.77"/><line class="cls-3" x1="36.95" y1="24.12" x2="39.43" y2="26.06"/><line class="cls-3" x1="34.42" y1="27.35" x2="39.38" y2="31.24"/><line class="cls-3" x1="31.88" y1="30.59" x2="34.36" y2="32.53"/><line class="cls-3" x1="29.35" y1="33.82" x2="34.31" y2="37.71"/><line class="cls-3" x1="26.82" y1="37.06" x2="29.3" y2="39"/><line class="cls-4" x1="28.09" y1="48.36" x2="24.42" y2="53.04"/><line class="cls-4" x1="21.2" y1="50.52" x2="24.87" y2="45.83"/><rect class="cls-1" x="16.91" y="51.67" width="9.03" height="3.74" transform="translate(37.59 -1.82) rotate(38.08)"/><path class="cls-5" d="M33.42,47.86,49.26,27.64a5.94,5.94,0,0,0,.83-5.87l.5-.63a3,3,0,0,0-4.67-3.66l-.5.63a5.94,5.94,0,0,0-5.49,2.21L24.08,40.54"/></svg>