<svg xmlns="http://www.w3.org/2000/svg" width="41.405" height="47.249" viewBox="0 0 41.405 47.249">
  <g id="vaccination-icon" transform="translate(34.141 -4.987) rotate(40)">
    <g id="Gruppe_41" data-name="Gruppe 41">
      <g id="Gruppe_7" data-name="Gruppe 7" transform="translate(1.724 53.445)">
        <g id="Gruppe_6" data-name="Gruppe 6">
          <g id="Gruppe_5" data-name="Gruppe 5">
            <path id="Pfad_9" data-name="Pfad 9" d="M12.93,1.724H.862A.814.814,0,0,1,0,.862.814.814,0,0,1,.862,0H12.93a.814.814,0,0,1,.862.862A.814.814,0,0,1,12.93,1.724Z" fill="#fff"/>
          </g>
        </g>
      </g>
      <g id="Gruppe_10" data-name="Gruppe 10" transform="translate(5.172 44.825)">
        <g id="Gruppe_9" data-name="Gruppe 9">
          <g id="Gruppe_8" data-name="Gruppe 8">
            <path id="Pfad_10" data-name="Pfad 10" d="M6.034,10.344H.862A.814.814,0,0,1,0,9.482V.862A.814.814,0,0,1,.862,0H6.034A.814.814,0,0,1,6.9.862v8.62A.814.814,0,0,1,6.034,10.344ZM1.724,8.62H5.172v-6.9H1.724Z" fill="#fff"/>
          </g>
        </g>
      </g>
      <g id="Gruppe_13" data-name="Gruppe 13" transform="translate(0 41.377)">
        <g id="Gruppe_12" data-name="Gruppe 12">
          <g id="Gruppe_11" data-name="Gruppe 11">
            <path id="Pfad_11" data-name="Pfad 11" d="M16.378,5.172H.862A.814.814,0,0,1,0,4.31V.862A.814.814,0,0,1,.862,0H16.378a.814.814,0,0,1,.862.862V4.31A.814.814,0,0,1,16.378,5.172ZM1.724,3.448H15.516V1.724H1.724Z" fill="#fff"/>
          </g>
        </g>
      </g>
      <g id="Gruppe_16" data-name="Gruppe 16" transform="translate(1.724 12.068)">
        <g id="Gruppe_15" data-name="Gruppe 15">
          <g id="Gruppe_14" data-name="Gruppe 14">
            <path id="Pfad_12" data-name="Pfad 12" d="M12.93,31.033H.862A.814.814,0,0,1,0,30.171V6.9a6.9,6.9,0,0,1,13.792,0V30.171A.814.814,0,0,1,12.93,31.033ZM1.724,29.309H12.068V6.9a5.172,5.172,0,1,0-10.344,0Z" fill="#fff"/>
          </g>
        </g>
      </g>
      <g id="Gruppe_19" data-name="Gruppe 19" transform="translate(4.31 8.706)">
        <g id="Gruppe_18" data-name="Gruppe 18">
          <g id="Gruppe_17" data-name="Gruppe 17">
            <path id="Pfad_13" data-name="Pfad 13" d="M7.758,6.207A.814.814,0,0,1,6.9,5.345v-2.5A1.141,1.141,0,0,0,5.776,1.724H2.845A1.141,1.141,0,0,0,1.724,2.845v2.5a.814.814,0,0,1-.862.862A.814.814,0,0,1,0,5.345v-2.5A2.87,2.87,0,0,1,2.845,0H5.776A2.87,2.87,0,0,1,8.62,2.845v2.5A.864.864,0,0,1,7.758,6.207Z" fill="#fff"/>
          </g>
        </g>
      </g>
      <g id="Gruppe_22" data-name="Gruppe 22" transform="translate(7.758 0)">
        <g id="Gruppe_21" data-name="Gruppe 21">
          <g id="Gruppe_20" data-name="Gruppe 20">
            <path id="Pfad_14" data-name="Pfad 14" d="M.862,10.344A.814.814,0,0,1,0,9.482V.862A.814.814,0,0,1,.862,0a.814.814,0,0,1,.862.862v8.62A.814.814,0,0,1,.862,10.344Z" fill="#fff"/>
          </g>
        </g>
      </g>
      <g id="Gruppe_25" data-name="Gruppe 25" transform="translate(1.724 19.826)">
        <g id="Gruppe_24" data-name="Gruppe 24">
          <g id="Gruppe_23" data-name="Gruppe 23">
            <path id="Pfad_15" data-name="Pfad 15" d="M4.31,1.724H.862A.814.814,0,0,1,0,.862.814.814,0,0,1,.862,0H4.31a.814.814,0,0,1,.862.862A.814.814,0,0,1,4.31,1.724Z" fill="#fff"/>
          </g>
        </g>
      </g>
      <g id="Gruppe_28" data-name="Gruppe 28" transform="translate(1.724 23.275)">
        <g id="Gruppe_27" data-name="Gruppe 27">
          <g id="Gruppe_26" data-name="Gruppe 26">
            <path id="Pfad_16" data-name="Pfad 16" d="M6.034,1.724H.862A.814.814,0,0,1,0,.862.814.814,0,0,1,.862,0H6.034A.814.814,0,0,1,6.9.862.814.814,0,0,1,6.034,1.724Z" fill="#fff"/>
          </g>
        </g>
      </g>
      <g id="Gruppe_31" data-name="Gruppe 31" transform="translate(1.724 26.723)">
        <g id="Gruppe_30" data-name="Gruppe 30">
          <g id="Gruppe_29" data-name="Gruppe 29">
            <path id="Pfad_17" data-name="Pfad 17" d="M4.31,1.724H.862A.814.814,0,0,1,0,.862.814.814,0,0,1,.862,0H4.31a.814.814,0,0,1,.862.862A.814.814,0,0,1,4.31,1.724Z" fill="#fff"/>
          </g>
        </g>
      </g>
      <g id="Gruppe_34" data-name="Gruppe 34" transform="translate(1.724 30.171)">
        <g id="Gruppe_33" data-name="Gruppe 33">
          <g id="Gruppe_32" data-name="Gruppe 32">
            <path id="Pfad_18" data-name="Pfad 18" d="M6.034,1.724H.862A.814.814,0,0,1,0,.862.814.814,0,0,1,.862,0H6.034A.814.814,0,0,1,6.9.862.814.814,0,0,1,6.034,1.724Z" fill="#fff"/>
          </g>
        </g>
      </g>
      <g id="Gruppe_37" data-name="Gruppe 37" transform="translate(1.724 33.619)">
        <g id="Gruppe_36" data-name="Gruppe 36">
          <g id="Gruppe_35" data-name="Gruppe 35">
            <path id="Pfad_19" data-name="Pfad 19" d="M4.31,1.724H.862A.814.814,0,0,1,0,.862.814.814,0,0,1,.862,0H4.31a.814.814,0,0,1,.862.862A.814.814,0,0,1,4.31,1.724Z" fill="#fff"/>
          </g>
        </g>
      </g>
      <g id="Gruppe_40" data-name="Gruppe 40" transform="translate(1.724 37.067)">
        <g id="Gruppe_39" data-name="Gruppe 39">
          <g id="Gruppe_38" data-name="Gruppe 38">
            <path id="Pfad_20" data-name="Pfad 20" d="M6.034,1.724H.862A.814.814,0,0,1,0,.862.814.814,0,0,1,.862,0H6.034A.814.814,0,0,1,6.9.862.814.814,0,0,1,6.034,1.724Z" fill="#fff"/>
          </g>
        </g>
      </g>
    </g>
  </g>
</svg>
